#!OML:ASF E:\Style4\Style4.ASF
:FULLY-SPECIFIED
:DEGREES
2791
root 0.574363 18.2049 -0.497898 7.15605 -37.2683 0.242144
lowerback 7.09362 -1.10954 -9.72128
upperback 2.13164 -2.41636 -6.65956
thorax -1.65693 -1.23549 -1.29102
lowerneck -0.0477212 12.3742 -1.41442
upperneck 7.29511 16.3563 2.55642
head 1.9652 8.13341 1.2598
rclavicle -1.43125e-014 1.59028e-014
rhumerus -33.5012 26.5392 -107.368
rradius 40.7763
rwrist -5.35742
rhand 8.3198 0.689104
rfingers 7.12502
rthumb 33.531 -26.1975
lclavicle -1.43125e-014 1.59028e-014
lhumerus -55.7968 -5.49528 82.06
lradius 56.9984
lwrist 10.2243
lhand -21.2974 35.5798
lfingers 7.12502
lthumb 5.08721 65.4988
rfemur -18.7115 18.6102 14.4715
rtibia 16.0262
rfoot -7.87981 7.83711
rtoes -8.78409
lfemur -7.2895 7.79053 -24.2165
ltibia 16.1719
lfoot -29.7785 29.8816
ltoes 7.36893
2792
root 0.576646 18.2051 -0.505892 7.11836 -37.2499 0.336535
lowerback 7.19082 -1.01264 -9.76629
upperback 2.1624 -2.31046 -6.81331
thorax -1.68897 -1.18408 -1.43414
lowerneck -0.181393 12.3525 -1.35911
upperneck 7.19237 16.3286 2.61533
head 1.95452 8.12462 1.27407
rclavicle -1.11319e-014 5.08889e-014
rhumerus -33.6017 26.5632 -107.515
rradius 40.7981
rwrist -5.51316
rhand 8.02603 0.858175
rfingers 7.12502
rthumb 33.2518 -26.0886
lclavicle -1.11319e-014 5.08889e-014
lhumerus -55.7973 -5.69186 81.915
lradius 57.2222
lwrist 10.0783
lhand -21.2353 35.5838
lfingers 7.12502
lthumb 5.14714 65.5013
rfemur -18.734 18.5248 14.3949
rtibia 15.99
rfoot -7.80995 7.89159
rtoes -8.63295
lfemur -7.36012 7.88293 -24.2976
ltibia 16.2099
lfoot -29.5546 29.9338
ltoes 6.92088
2793
root 0.57814 18.2058 -0.515403 7.15273 -37.205 0.315133
lowerback 7.31036 -0.946206 -9.77149
upperback 2.17814 -2.24428 -6.91054
thorax -1.7463 -1.15063 -1.53614
lowerneck -0.250321 12.3415 -1.38493
upperneck 7.00186 16.3165 2.6769
head 1.8968 8.12213 1.29064
rclavicle -8.42847e-014 4.77083e-014
rhumerus -33.7574 26.5823 -107.657
rradius 40.8696
rwrist -5.59341
rhand 7.93799 0.909818
rfingers 7.12502
rthumb 33.1681 -26.0548
lclavicle -8.42847e-014 4.77083e-014
lhumerus -55.8219 -5.74765 81.7525
lradius 57.4785
lwrist 9.89185
lhand -21.1946 35.6224
lfingers 7.12502
lthumb 5.18642 65.5389
rfemur -18.7798 18.5273 14.4065
rtibia 15.9755
rfoot -7.78876 7.86412
rtoes -8.73658
lfemur -7.44261 7.89323 -24.2609
ltibia 16.2518
lfoot -29.483 29.8866
ltoes 6.96656
2794
root 0.579543 18.2063 -0.525206 7.21877 -37.1286 0.261736
lowerback 7.41465 -0.8877 -9.75311
upperback 2.18425 -2.18484 -6.99471
thorax -1.80507 -1.12012 -1.6373
lowerneck -0.310591 12.3429 -1.42081
upperneck 6.81035 16.3194 2.77815
head 1.83287 8.12774 1.31947
rclavicle 5.1684e-014 -7.95139e-014
rhumerus -33.9235 26.5521 -107.802
rradius 40.9234
rwrist -5.69652
rhand 7.91481 0.864772
rfingers 7.12502
rthumb 33.146 -26.1045
lclavicle 5.1684e-014 -7.95139e-014
lhumerus -55.7558 -5.6747 81.601
lradius 57.6355
lwrist 9.67902
lhand -21.6095 35.4723
lfingers 7.12502
lthumb 4.78584 65.3982
rfemur -18.8143 18.5347 14.4442
rtibia 15.9418
rfoot -7.78549 7.77445
rtoes -8.95448
lfemur -7.55315 7.84829 -24.1972
ltibia 16.3151
lfoot -29.4791 29.8785
ltoes 6.78644
2795
root 0.580945 18.2066 -0.532972 7.24717 -37.0802 0.285007
lowerback 7.47154 -0.816923 -9.76578
upperback 2.19079 -2.10513 -7.09279
thorax -1.83685 -1.08065 -1.73923
lowerneck -0.429159 12.3464 -1.37063
upperneck 6.74244 16.3272 2.78117
head 1.83481 8.13441 1.31912
rclavicle 1.16885e-013 -2.8625e-014
rhumerus -34.1543 26.5704 -107.943
rradius 41.0342
rwrist -5.8863
rhand 7.83383 0.768088
rfingers 7.12502
rthumb 33.069 -26.2175
lclavicle 1.16885e-013 -2.8625e-014
lhumerus -55.5883 -5.53934 81.4417
lradius 57.7066
lwrist 9.47517
lhand -22.2686 35.1084
lfingers 7.12502
lthumb 4.14942 65.0477
rfemur -18.8561 18.4469 14.4221
rtibia 15.9026
rfoot -7.72815 7.80517
rtoes -8.71948
lfemur -7.67183 7.86477 -24.2123
ltibia 16.3878
lfoot -29.3622 29.9419
ltoes 6.14699
2796
root 0.583056 18.2072 -0.540203 7.30444 -37.0514 0.252569
lowerback 7.52523 -0.732718 -9.70446
upperback 2.19355 -2.00138 -7.17885
thorax -1.87369 -1.02901 -1.87121
lowerneck -0.572182 12.3175 -1.35455
upperneck 6.72853 16.2906 2.80853
head 1.85458 8.1185 1.335
rclavicle -2.94201e-014 1.04958e-013
rhumerus -34.3624 26.6437 -108.073
rradius 41.0899
rwrist -6.17668
rhand 7.68089 0.748611
rfingers 7.12502
rthumb 32.9236 -26.2677
lclavicle -2.94201e-014 1.04958e-013
lhumerus -55.5064 -5.48432 81.2963
lradius 57.8669
lwrist 9.24437
lhand -22.4732 34.8834
lfingers 7.12502
lthumb 3.95182 64.8265
rfemur -18.8975 18.3728 14.4464
rtibia 15.8671
rfoot -7.65867 7.83508
rtoes -8.51068
lfemur -7.77477 7.82088 -24.1801
ltibia 16.4503
lfoot -29.4215 29.9786
ltoes 6.09714
2797
root 0.584783 18.2067 -0.549279 7.30188 -37.0374 0.297379
lowerback 7.57467 -0.619116 -9.69078
upperback 2.21558 -1.86235 -7.31436
thorax -1.88873 -0.961525 -2.03307
lowerneck -0.612761 12.2751 -1.28356
upperneck 6.62772 16.2319 2.88315
head 1.82923 8.09416 1.34438
rclavicle 5.80451e-014 1.24042e-013
rhumerus -34.4635 26.5859 -108.192
rradius 41.0945
rwrist -6.38944
rhand 7.50369 0.856707
rfingers 7.12502
rthumb 32.755 -26.1949
lclavicle 5.80451e-014 1.24042e-013
lhumerus -55.4933 -5.65614 81.1829
lradius 58.0762
lwrist 9.03994
lhand -22.3288 35.003
lfingers 7.12502
lthumb 4.09123 64.9435
rfemur -18.9483 18.3166 14.4086
rtibia 15.8473
rfoot -7.61022 7.87297
rtoes -8.50617
lfemur -7.85321 7.8509 -24.2108
ltibia 16.4841
lfoot -29.4464 29.9178
ltoes 6.35103
2798
root 0.587815 18.206 -0.558156 7.30828 -37.0219 0.323406
lowerback 7.62453 -0.528601 -9.6839
upperback 2.24143 -1.75228 -7.41591
thorax -1.89689 -0.908321 -2.15324
lowerneck -0.565458 12.2804 -1.29692
upperneck 6.45022 16.2375 2.98095
head 1.75373 8.10028 1.36161
rclavicle -4.6118e-014 6.36111e-015
rhumerus -34.6197 26.6104 -108.289
rradius 41.195
rwrist -6.47211
rhand 7.45568 0.939201
rfingers 7.12502
rthumb 32.7093 -26.1219
lclavicle -4.6118e-014 6.36111e-015
lhumerus -55.5241 -5.74085 81.0866
lradius 58.3425
lwrist 8.81462
lhand -22.1622 35.1685
lfingers 7.12502
lthumb 4.2521 65.1058
rfemur -18.9934 18.236 14.3875
rtibia 15.8145
rfoot -7.55147 7.95006
rtoes -8.57107
lfemur -7.93854 7.81192 -24.2243
ltibia 16.5426
lfoot -29.5015 29.8308
ltoes 6.77939
2799
root 0.590556 18.2049 -0.567403 7.3041 -36.9931 0.325886
lowerback 7.73501 -0.445429 -9.68408
upperback 2.27462 -1.66034 -7.50234
thorax -1.92951 -0.863355 -2.25153
lowerneck -0.641937 12.277 -1.26974
upperneck 6.36263 16.2332 3.04266
head 1.73541 8.10157 1.37708
rclavicle -3.4191e-014 9.54166e-015
rhumerus -34.814 26.6725 -108.396
rradius 41.3374
rwrist -6.505
rhand 7.36394 0.960634
rfingers 7.12502
rthumb 32.622 -26.1186
lclavicle -3.4191e-014 9.54166e-015
lhumerus -55.5626 -5.77646 80.95
lradius 58.6989
lwrist 8.62233
lhand -21.7765 35.4239
lfingers 7.12502
lthumb 4.62457 65.3534
rfemur -19.0178 18.2815 14.3689
rtibia 15.8095
rfoot -7.49012 7.88811
rtoes -8.17798
lfemur -7.99759 7.75525 -24.2082
ltibia 16.5997
lfoot -29.5848 29.7254
ltoes 7.28184
2800
root 0.592905 18.2042 -0.576736 7.28729 -37.0097 0.344063
lowerback 7.82313 -0.334328 -9.70932
upperback 2.32023 -1.52976 -7.60489
thorax -1.93711 -0.800505 -2.35748
lowerneck -0.744228 12.2552 -1.24001
upperneck 6.211 16.206 3.10738
head 1.70121 8.09233 1.39156
rclavicle -5.56597e-014 -5.08889e-014
rhumerus -34.923 26.7055 -108.501
rradius 41.3908
rwrist -6.5711
rhand 7.19606 1.01521
rfingers 7.12502
rthumb 32.4623 -26.0969
lclavicle -5.56597e-014 -5.08889e-014
lhumerus -55.5465 -5.84329 80.7912
lradius 59.0475
lwrist 8.51007
lhand -21.1287 35.8617
lfingers 7.12502
lthumb 5.25012 65.7767
rfemur -19.0351 18.3429 14.3393
rtibia 15.7866
rfoot -7.43548 7.8242
rtoes -8.16664
lfemur -8.07882 7.79633 -24.219
ltibia 16.6917
lfoot -29.4928 29.7643
ltoes 6.9736
2801
root 0.595613 18.2029 -0.58736 7.22952 -37.0755 0.356031
lowerback 7.94985 -0.182759 -9.72215
upperback 2.3665 -1.35085 -7.70268
thorax -1.96669 -0.713166 -2.46991
lowerneck -0.834505 12.1968 -1.30814
upperneck 6.04089 16.1309 3.21788
head 1.64833 8.05815 1.43076
rclavicle -2.78299e-014 9.85972e-014
rhumerus -35.0481 26.6778 -108.559
rradius 41.5038
rwrist -6.67624
rhand 7.08206 1.06254
rfingers 7.12502
rthumb 32.3538 -26.0718
lclavicle -2.78299e-014 9.85972e-014
lhumerus -55.5038 -5.94889 80.6714
lradius 59.3848
lwrist 8.40287
lhand -20.7129 36.1203
lfingers 7.12502
lthumb 5.65157 66.0249
rfemur -19.0291 18.3413 14.35
rtibia 15.7729
rfoot -7.36919 7.86486
rtoes -8.20052
lfemur -8.10254 7.86668 -24.2209
ltibia 16.7707
lfoot -29.4554 29.757
ltoes 7.00212
